<svg xmlns="http://www.w3.org/2000/svg" xmlns:xlink="http://www.w3.org/1999/xlink" width="400" zoomAndPan="magnify" viewBox="0 0 300 74.999997" height="100" preserveAspectRatio="xMidYMid meet" version="1.0"><defs><g/></defs><g fill="#ffffff" fill-opacity="1"><g transform="translate(49.948068, 45.53855)"><g><path d="M 2.28125 -23.703125 C 2.894531 -24.316406 3.625 -24.625 4.46875 -24.625 C 5.320312 -24.625 6.054688 -24.316406 6.671875 -23.703125 C 7.285156 -23.085938 7.59375 -22.351562 7.59375 -21.5 C 7.59375 -20.65625 7.285156 -19.925781 6.671875 -19.3125 C 6.054688 -18.695312 5.320312 -18.390625 4.46875 -18.390625 C 3.625 -18.390625 2.894531 -18.695312 2.28125 -19.3125 C 1.664062 -19.925781 1.359375 -20.65625 1.359375 -21.5 C 1.359375 -22.351562 1.664062 -23.085938 2.28125 -23.703125 Z M 1.78125 -15.21875 L 1.78125 1.328125 C 1.78125 2.710938 1.296875 3.40625 0.328125 3.40625 C 0.128906 3.40625 -0.078125 3.367188 -0.296875 3.296875 C -0.515625 3.234375 -0.691406 3.160156 -0.828125 3.078125 L -1.015625 2.96875 L -2.640625 7.203125 C -2.597656 7.222656 -2.46875 7.28125 -2.25 7.375 C -2.03125 7.476562 -1.867188 7.554688 -1.765625 7.609375 C -1.660156 7.660156 -1.476562 7.722656 -1.21875 7.796875 C -0.957031 7.878906 -0.707031 7.941406 -0.46875 7.984375 C -0.238281 8.023438 0.0507812 8.0625 0.40625 8.09375 C 0.769531 8.132812 1.148438 8.15625 1.546875 8.15625 C 2.535156 8.15625 3.40625 7.984375 4.15625 7.640625 C 4.90625 7.296875 5.476562 6.832031 5.875 6.25 C 6.269531 5.664062 6.5625 5.050781 6.75 4.40625 C 6.9375 3.757812 7.03125 3.070312 7.03125 2.34375 L 7.03125 -15.21875 Z M 1.78125 -15.21875 "/></g></g></g><g fill="#ffffff" fill-opacity="1"><g transform="translate(55.968751, 45.53855)"><g><path d="M 3.21875 -1.8125 C 1.53125 -3.3125 0.6875 -5.238281 0.6875 -7.59375 C 0.6875 -9.945312 1.566406 -11.878906 3.328125 -13.390625 C 5.085938 -14.910156 7.257812 -15.671875 9.84375 -15.671875 C 12.394531 -15.671875 14.546875 -14.90625 16.296875 -13.375 C 18.054688 -11.851562 18.9375 -9.925781 18.9375 -7.59375 C 18.9375 -5.257812 18.078125 -3.335938 16.359375 -1.828125 C 14.648438 -0.316406 12.476562 0.4375 9.84375 0.4375 C 7.113281 0.4375 4.90625 -0.3125 3.21875 -1.8125 Z M 7.28125 -10.171875 C 6.601562 -9.503906 6.265625 -8.644531 6.265625 -7.59375 C 6.265625 -6.539062 6.585938 -5.679688 7.234375 -5.015625 C 7.890625 -4.359375 8.753906 -4.03125 9.828125 -4.03125 C 10.847656 -4.03125 11.691406 -4.363281 12.359375 -5.03125 C 13.023438 -5.707031 13.359375 -6.5625 13.359375 -7.59375 C 13.359375 -8.644531 13.015625 -9.503906 12.328125 -10.171875 C 11.648438 -10.847656 10.816406 -11.1875 9.828125 -11.1875 C 8.816406 -11.1875 7.96875 -10.847656 7.28125 -10.171875 Z M 7.28125 -10.171875 "/></g></g></g><g fill="#ffffff" fill-opacity="1"><g transform="translate(72.786606, 45.53855)"><g><path d="M 17.4375 -13.328125 C 18.863281 -11.765625 19.578125 -9.851562 19.578125 -7.59375 C 19.578125 -5.34375 18.863281 -3.441406 17.4375 -1.890625 C 16.019531 -0.335938 14.210938 0.4375 12.015625 0.4375 C 9.992188 0.4375 8.332031 -0.28125 7.03125 -1.71875 L 6.96875 -1.71875 L 6.96875 0 L 1.78125 0 L 1.78125 -25.515625 L 7.03125 -25.515625 L 7.03125 -13.765625 C 8.332031 -15.035156 9.992188 -15.671875 12.015625 -15.671875 C 14.210938 -15.671875 16.019531 -14.890625 17.4375 -13.328125 Z M 13.015625 -5.015625 C 13.671875 -5.679688 14 -6.539062 14 -7.59375 C 14 -8.644531 13.65625 -9.503906 12.96875 -10.171875 C 12.289062 -10.847656 11.445312 -11.1875 10.4375 -11.1875 C 9.445312 -11.1875 8.609375 -10.847656 7.921875 -10.171875 C 7.242188 -9.503906 6.90625 -8.644531 6.90625 -7.59375 C 6.90625 -6.5625 7.238281 -5.707031 7.90625 -5.03125 C 8.570312 -4.363281 9.414062 -4.03125 10.4375 -4.03125 C 11.507812 -4.03125 12.367188 -4.359375 13.015625 -5.015625 Z M 13.015625 -5.015625 "/></g></g></g><g fill="#ffffff" fill-opacity="1"><g transform="translate(90.257038, 45.53855)"><g><path d="M 0.6875 -12.25 C 0.6875 -15.789062 1.890625 -18.785156 4.296875 -21.234375 C 6.710938 -23.691406 9.625 -24.921875 13.03125 -24.921875 C 16.445312 -24.921875 19.351562 -23.695312 21.75 -21.25 C 24.144531 -18.8125 25.34375 -15.8125 25.34375 -12.25 C 25.34375 -8.675781 24.164062 -5.664062 21.8125 -3.21875 C 19.457031 -0.78125 16.53125 0.4375 13.03125 0.4375 C 9.445312 0.4375 6.492188 -0.769531 4.171875 -3.1875 C 1.847656 -5.613281 0.6875 -8.632812 0.6875 -12.25 Z M 6.703125 -12.25 C 6.703125 -10.96875 6.898438 -9.796875 7.296875 -8.734375 C 7.691406 -7.679688 8.382812 -6.785156 9.375 -6.046875 C 10.363281 -5.316406 11.582031 -4.953125 13.03125 -4.953125 C 15.101562 -4.953125 16.664062 -5.664062 17.71875 -7.09375 C 18.78125 -8.519531 19.3125 -10.238281 19.3125 -12.25 C 19.3125 -14.25 18.769531 -15.960938 17.6875 -17.390625 C 16.613281 -18.828125 15.0625 -19.546875 13.03125 -19.546875 C 11.007812 -19.546875 9.445312 -18.828125 8.34375 -17.390625 C 7.25 -15.960938 6.703125 -14.25 6.703125 -12.25 Z M 6.703125 -12.25 "/></g></g></g><g fill="#ffffff" fill-opacity="1"><g transform="translate(113.482007, 45.53855)"><g><path d="M 1.78125 0 L 1.78125 -15.21875 L 7.03125 -15.21875 L 7.03125 -13.625 L 7.09375 -13.625 C 8.457031 -14.988281 9.910156 -15.671875 11.453125 -15.671875 C 12.203125 -15.671875 12.945312 -15.570312 13.6875 -15.375 C 14.4375 -15.175781 15.148438 -14.867188 15.828125 -14.453125 C 16.515625 -14.035156 17.066406 -13.445312 17.484375 -12.6875 C 17.910156 -11.925781 18.125 -11.039062 18.125 -10.03125 L 18.125 0 L 12.875 0 L 12.875 -8.609375 C 12.875 -9.398438 12.617188 -10.09375 12.109375 -10.6875 C 11.609375 -11.28125 10.953125 -11.578125 10.140625 -11.578125 C 9.347656 -11.578125 8.628906 -11.269531 7.984375 -10.65625 C 7.347656 -10.039062 7.03125 -9.359375 7.03125 -8.609375 L 7.03125 0 Z M 1.78125 0 "/></g></g></g><g fill="#ffffff" fill-opacity="1"><g transform="translate(130.299865, 45.53855)"><g><path d="M 14.8125 -5.046875 C 15.65625 -5.046875 16.476562 -5.171875 17.28125 -5.421875 C 18.082031 -5.679688 18.671875 -5.929688 19.046875 -6.171875 L 19.609375 -6.5625 L 21.984375 -1.8125 C 21.910156 -1.75 21.800781 -1.664062 21.65625 -1.5625 C 21.519531 -1.46875 21.195312 -1.285156 20.6875 -1.015625 C 20.1875 -0.753906 19.648438 -0.523438 19.078125 -0.328125 C 18.503906 -0.128906 17.75 0.046875 16.8125 0.203125 C 15.882812 0.359375 14.929688 0.4375 13.953125 0.4375 C 11.671875 0.4375 9.507812 -0.117188 7.46875 -1.234375 C 5.4375 -2.347656 3.796875 -3.882812 2.546875 -5.84375 C 1.304688 -7.800781 0.6875 -9.914062 0.6875 -12.1875 C 0.6875 -13.914062 1.050781 -15.570312 1.78125 -17.15625 C 2.507812 -18.738281 3.484375 -20.09375 4.703125 -21.21875 C 5.921875 -22.34375 7.335938 -23.238281 8.953125 -23.90625 C 10.578125 -24.582031 12.242188 -24.921875 13.953125 -24.921875 C 15.523438 -24.921875 16.976562 -24.734375 18.3125 -24.359375 C 19.65625 -23.984375 20.601562 -23.609375 21.15625 -23.234375 L 21.984375 -22.671875 L 19.609375 -17.921875 C 19.472656 -18.035156 19.265625 -18.175781 18.984375 -18.34375 C 18.710938 -18.519531 18.160156 -18.742188 17.328125 -19.015625 C 16.492188 -19.296875 15.65625 -19.4375 14.8125 -19.4375 C 13.457031 -19.4375 12.242188 -19.21875 11.171875 -18.78125 C 10.109375 -18.34375 9.265625 -17.769531 8.640625 -17.0625 C 8.023438 -16.351562 7.550781 -15.585938 7.21875 -14.765625 C 6.894531 -13.941406 6.734375 -13.101562 6.734375 -12.25 C 6.734375 -10.394531 7.429688 -8.726562 8.828125 -7.25 C 10.222656 -5.78125 12.21875 -5.046875 14.8125 -5.046875 Z M 14.8125 -5.046875 "/></g></g></g><g fill="#ffffff" fill-opacity="1"><g transform="translate(149.846671, 45.53855)"><g><path d="M 2.8125 -1.890625 C 1.394531 -3.441406 0.6875 -5.34375 0.6875 -7.59375 C 0.6875 -9.851562 1.394531 -11.765625 2.8125 -13.328125 C 4.238281 -14.890625 6.050781 -15.671875 8.25 -15.671875 C 10.269531 -15.671875 11.929688 -15.035156 13.234375 -13.765625 L 13.234375 -15.21875 L 18.484375 -15.21875 L 18.484375 0 L 13.296875 0 L 13.296875 -1.71875 L 13.234375 -1.71875 C 11.929688 -0.28125 10.269531 0.4375 8.25 0.4375 C 6.050781 0.4375 4.238281 -0.335938 2.8125 -1.890625 Z M 7.28125 -10.171875 C 6.601562 -9.503906 6.265625 -8.644531 6.265625 -7.59375 C 6.265625 -6.539062 6.585938 -5.679688 7.234375 -5.015625 C 7.890625 -4.359375 8.753906 -4.03125 9.828125 -4.03125 C 10.847656 -4.03125 11.691406 -4.363281 12.359375 -5.03125 C 13.023438 -5.707031 13.359375 -6.5625 13.359375 -7.59375 C 13.359375 -8.644531 13.015625 -9.503906 12.328125 -10.171875 C 11.648438 -10.847656 10.816406 -11.1875 9.828125 -11.1875 C 8.816406 -11.1875 7.96875 -10.847656 7.28125 -10.171875 Z M 7.28125 -10.171875 "/></g></g></g><g fill="#ffffff" fill-opacity="1"><g transform="translate(167.3171, 45.53855)"><g><path d="M 1.78125 0 L 1.78125 -15.21875 L 7.03125 -15.21875 L 7.03125 -13.625 L 7.09375 -13.625 C 8.457031 -14.988281 9.910156 -15.671875 11.453125 -15.671875 C 12.554688 -15.671875 13.59375 -15.441406 14.5625 -14.984375 C 15.53125 -14.523438 16.265625 -13.820312 16.765625 -12.875 C 18.304688 -14.738281 19.988281 -15.671875 21.8125 -15.671875 C 23.425781 -15.671875 24.816406 -15.210938 25.984375 -14.296875 C 27.160156 -13.390625 27.75 -11.96875 27.75 -10.03125 L 27.75 0 L 22.484375 0 L 22.484375 -8.609375 C 22.484375 -9.421875 22.257812 -10.097656 21.8125 -10.640625 C 21.375 -11.179688 20.710938 -11.453125 19.828125 -11.453125 C 19.046875 -11.453125 18.453125 -11.21875 18.046875 -10.75 C 17.648438 -10.289062 17.429688 -9.734375 17.390625 -9.078125 L 17.390625 0 L 12.140625 0 L 12.140625 -8.609375 C 12.140625 -9.421875 11.914062 -10.097656 11.46875 -10.640625 C 11.019531 -11.179688 10.351562 -11.453125 9.46875 -11.453125 C 8.65625 -11.453125 8.046875 -11.195312 7.640625 -10.6875 C 7.234375 -10.1875 7.03125 -9.59375 7.03125 -8.90625 L 7.03125 0 Z M 1.78125 0 "/></g></g></g><g fill="#ffffff" fill-opacity="1"><g transform="translate(193.745623, 45.53855)"><g><path d="M 17.4375 -13.34375 C 18.863281 -11.789062 19.578125 -9.882812 19.578125 -7.625 C 19.578125 -5.375 18.863281 -3.46875 17.4375 -1.90625 C 16.019531 -0.34375 14.210938 0.4375 12.015625 0.4375 C 9.992188 0.4375 8.332031 -0.191406 7.03125 -1.453125 L 7.03125 7.71875 L 1.78125 7.71875 L 1.78125 -15.21875 L 6.96875 -15.21875 L 6.96875 -13.5 L 7.03125 -13.5 C 8.332031 -14.945312 9.992188 -15.671875 12.015625 -15.671875 C 14.210938 -15.671875 16.019531 -14.894531 17.4375 -13.34375 Z M 12.96875 -5.03125 C 13.65625 -5.707031 14 -6.570312 14 -7.625 C 14 -8.675781 13.671875 -9.53125 13.015625 -10.1875 C 12.367188 -10.851562 11.507812 -11.1875 10.4375 -11.1875 C 9.414062 -11.1875 8.570312 -10.847656 7.90625 -10.171875 C 7.238281 -9.503906 6.90625 -8.65625 6.90625 -7.625 C 6.90625 -6.570312 7.242188 -5.707031 7.921875 -5.03125 C 8.609375 -4.363281 9.445312 -4.03125 10.4375 -4.03125 C 11.445312 -4.03125 12.289062 -4.363281 12.96875 -5.03125 Z M 12.96875 -5.03125 "/></g></g></g><g fill="#ffffff" fill-opacity="1"><g transform="translate(211.216051, 45.53855)"><g><path d="M 6.734375 -15.21875 L 6.734375 -7.984375 C 6.734375 -6.484375 6.957031 -5.414062 7.40625 -4.78125 C 7.863281 -4.144531 8.632812 -3.828125 9.71875 -3.828125 C 10.8125 -3.828125 11.585938 -4.144531 12.046875 -4.78125 C 12.503906 -5.414062 12.734375 -6.484375 12.734375 -7.984375 L 12.734375 -15.21875 L 17.984375 -15.21875 L 17.984375 -6.703125 C 17.984375 -4.171875 17.320312 -2.347656 16 -1.234375 C 14.6875 -0.117188 12.597656 0.4375 9.734375 0.4375 C 6.867188 0.4375 4.773438 -0.117188 3.453125 -1.234375 C 2.140625 -2.347656 1.484375 -4.171875 1.484375 -6.703125 L 1.484375 -15.21875 Z M 6.734375 -15.21875 "/></g></g></g><g fill="#ffffff" fill-opacity="1"><g transform="translate(227.885592, 45.53855)"><g><path d="M 8.390625 -15.671875 C 9.265625 -15.671875 10.125 -15.570312 10.96875 -15.375 C 11.820312 -15.175781 12.457031 -14.976562 12.875 -14.78125 L 13.5 -14.484375 L 11.78125 -11.03125 C 10.59375 -11.664062 9.460938 -11.984375 8.390625 -11.984375 C 7.796875 -11.984375 7.375 -11.921875 7.125 -11.796875 C 6.882812 -11.671875 6.765625 -11.425781 6.765625 -11.0625 C 6.765625 -10.988281 6.773438 -10.910156 6.796875 -10.828125 C 6.816406 -10.753906 6.851562 -10.679688 6.90625 -10.609375 C 6.96875 -10.535156 7.023438 -10.472656 7.078125 -10.421875 C 7.128906 -10.378906 7.210938 -10.328125 7.328125 -10.265625 C 7.441406 -10.203125 7.535156 -10.15625 7.609375 -10.125 C 7.679688 -10.101562 7.796875 -10.0625 7.953125 -10 C 8.109375 -9.9375 8.222656 -9.890625 8.296875 -9.859375 C 8.378906 -9.835938 8.515625 -9.796875 8.703125 -9.734375 C 8.890625 -9.671875 9.035156 -9.628906 9.140625 -9.609375 C 9.753906 -9.429688 10.285156 -9.234375 10.734375 -9.015625 C 11.191406 -8.796875 11.671875 -8.5 12.171875 -8.125 C 12.679688 -7.75 13.070312 -7.273438 13.34375 -6.703125 C 13.625 -6.128906 13.765625 -5.476562 13.765625 -4.75 C 13.765625 -1.289062 11.363281 0.4375 6.5625 0.4375 C 5.46875 0.4375 4.429688 0.269531 3.453125 -0.0625 C 2.472656 -0.394531 1.765625 -0.726562 1.328125 -1.0625 L 0.6875 -1.609375 L 2.8125 -5.1875 C 2.976562 -5.050781 3.1875 -4.890625 3.4375 -4.703125 C 3.695312 -4.515625 4.160156 -4.253906 4.828125 -3.921875 C 5.503906 -3.597656 6.09375 -3.4375 6.59375 -3.4375 C 7.675781 -3.4375 8.21875 -3.804688 8.21875 -4.546875 C 8.21875 -4.878906 8.078125 -5.140625 7.796875 -5.328125 C 7.523438 -5.515625 7.054688 -5.722656 6.390625 -5.953125 C 5.734375 -6.191406 5.21875 -6.410156 4.84375 -6.609375 C 3.882812 -7.109375 3.128906 -7.671875 2.578125 -8.296875 C 2.023438 -8.921875 1.75 -9.742188 1.75 -10.765625 C 1.75 -12.304688 2.347656 -13.507812 3.546875 -14.375 C 4.742188 -15.238281 6.359375 -15.671875 8.390625 -15.671875 Z M 8.390625 -15.671875 "/></g></g></g><g fill="#ffffff" fill-opacity="1"><g transform="translate(239.69048, 45.53855)"><g><path d="M 5.15625 -6.34375 C 6.113281 -6.34375 6.921875 -6.007812 7.578125 -5.34375 C 8.242188 -4.6875 8.578125 -3.882812 8.578125 -2.9375 C 8.578125 -2.007812 8.242188 -1.210938 7.578125 -0.546875 C 6.921875 0.109375 6.113281 0.4375 5.15625 0.4375 C 4.226562 0.4375 3.429688 0.109375 2.765625 -0.546875 C 2.109375 -1.210938 1.78125 -2.007812 1.78125 -2.9375 C 1.78125 -3.882812 2.109375 -4.6875 2.765625 -5.34375 C 3.429688 -6.007812 4.226562 -6.34375 5.15625 -6.34375 Z M 5.15625 -6.34375 "/></g></g></g></svg>